<?xml version="1.0" encoding="UTF-8" standalone="no"?>
<!DOCTYPE svg PUBLIC "-//W3C//DTD SVG 1.1//EN"
 "http://www.w3.org/Graphics/SVG/1.1/DTD/svg11.dtd">
<!-- Generated by graphviz version 2.43.0 (0)
 -->
<!-- Title: application_state_diagram Pages: 1 -->
<svg width="814pt" height="502pt"
 viewBox="0.00 0.00 814.18 502.00" xmlns="http://www.w3.org/2000/svg" xmlns:xlink="http://www.w3.org/1999/xlink">
<g id="graph0" class="graph" transform="scale(1 1) rotate(0) translate(4 498)">
<title>application_state_diagram</title>
<g id="a_graph0"><a xlink:href="index.html" target="_parent">
<polygon fill="white" stroke="transparent" points="-4,4 -4,-498 810.18,-498 810.18,4 -4,4"/>
</a>
</g>
<!-- mazeCollection -->
<g id="node1" class="node">
<title>mazeCollection</title>
<g id="a_node1"><a xlink:href="docs/semantic.mazeCollection.html" xlink:title="&lt;TABLE&gt;" target="_parent">
<polygon fill="none" stroke="black" points="358.68,-494 235.68,-494 235.68,-420 358.68,-420 358.68,-494"/>
<polygon fill="#dddddd" stroke="transparent" points="237.18,-421 237.18,-493 358.18,-493 358.18,-421 237.18,-421"/>
<polygon fill="none" stroke="black" points="237.18,-421 237.18,-493 358.18,-493 358.18,-421 237.18,-421"/>
<text text-anchor="start" x="243.18" y="-475.8" font-family="Times,serif" font-size="14.00">mazeCollection</text>
<text text-anchor="start" x="277.68" y="-460.8" font-family="Times,serif" font-size="14.00">(href)</text>
<text text-anchor="start" x="277.68" y="-445.8" font-family="Times,serif" font-size="14.00">(title)</text>
<text text-anchor="start" x="282.18" y="-430.8" font-family="Times,serif" font-size="14.00">(rel)</text>
</a>
</g>
</g>
<!-- mazeCollection&#45;&gt;mazeCollection -->
<g id="edge2" class="edge">
<title>mazeCollection&#45;&gt;mazeCollection</title>
<g id="a_edge2"><a xlink:href="docs/safe.goCollection.html" xlink:title="goCollection, collection (safe)" target="_parent">
<path fill="none" stroke="black" d="M358.85,-467.85C369.39,-466.37 376.68,-462.75 376.68,-457 376.68,-453.32 373.69,-450.51 368.77,-448.57"/>
<polygon fill="black" stroke="black" points="369.4,-445.12 358.85,-446.15 367.73,-451.92 369.4,-445.12"/>
</a>
</g>
<g id="a_edge2&#45;label"><a xlink:href="docs/safe.goCollection.html" xlink:title="goCollection, collection (safe)" target="_parent">
<text text-anchor="middle" x="475.68" y="-453.6" font-family="Times,serif" font-size="13.00">goCollection, collection (safe)</text>
</a>
</g>
</g>
<!-- mazeItem -->
<g id="node2" class="node">
<title>mazeItem</title>
<g id="a_node2"><a xlink:href="docs/semantic.mazeItem.html" xlink:title="&lt;TABLE&gt;" target="_parent">
<polygon fill="none" stroke="black" points="114.68,-370 29.68,-370 29.68,-296 114.68,-296 114.68,-370"/>
<polygon fill="#dddddd" stroke="transparent" points="31.18,-297 31.18,-369 114.18,-369 114.18,-297 31.18,-297"/>
<polygon fill="none" stroke="black" points="31.18,-297 31.18,-369 114.18,-369 114.18,-297 31.18,-297"/>
<text text-anchor="start" x="37.18" y="-351.8" font-family="Times,serif" font-size="14.00">mazeItem</text>
<text text-anchor="start" x="52.68" y="-336.8" font-family="Times,serif" font-size="14.00">(href)</text>
<text text-anchor="start" x="52.68" y="-321.8" font-family="Times,serif" font-size="14.00">(title)</text>
<text text-anchor="start" x="57.18" y="-306.8" font-family="Times,serif" font-size="14.00">(rel)</text>
</a>
</g>
</g>
<!-- mazeCollection&#45;&gt;mazeItem -->
<g id="edge1" class="edge">
<title>mazeCollection&#45;&gt;mazeItem</title>
<g id="a_edge1"><a xlink:href="docs/safe.goItem.html" xlink:title="goItem, item maze (safe)" target="_parent">
<path fill="none" stroke="black" d="M235.66,-453.56C158.82,-449.07 33.91,-436.53 5.18,-402 -6.66,-387.77 4.6,-373.01 21.04,-360.89"/>
<polygon fill="black" stroke="black" points="23.15,-363.68 29.45,-355.17 19.22,-357.9 23.15,-363.68"/>
</a>
</g>
<g id="a_edge1&#45;label"><a xlink:href="docs/safe.goItem.html" xlink:title="goItem, item maze (safe)" target="_parent">
<text text-anchor="middle" x="87.18" y="-391.6" font-family="Times,serif" font-size="13.00">goItem, item maze (safe)</text>
</a>
</g>
</g>
<!-- mazeItem&#45;&gt;mazeCollection -->
<g id="edge4" class="edge">
<title>mazeItem&#45;&gt;mazeCollection</title>
<g id="a_edge4"><a xlink:href="docs/safe.goCollection.html" xlink:title="goCollection, collection (safe)" target="_parent">
<path fill="none" stroke="black" d="M114.88,-357.3C131.87,-366.69 151.53,-377.72 169.18,-388 179.53,-394.02 181.75,-396.15 192.18,-402 203.12,-408.13 214.82,-414.41 226.3,-420.42"/>
<polygon fill="black" stroke="black" points="224.95,-423.67 235.44,-425.18 228.18,-417.46 224.95,-423.67"/>
</a>
</g>
<g id="a_edge4&#45;label"><a xlink:href="docs/safe.goCollection.html" xlink:title="goCollection, collection (safe)" target="_parent">
<text text-anchor="middle" x="291.18" y="-391.6" font-family="Times,serif" font-size="13.00">goCollection, collection (safe)</text>
</a>
</g>
</g>
<!-- mazeCell -->
<g id="node3" class="node">
<title>mazeCell</title>
<g id="a_node3"><a xlink:href="docs/semantic.mazeCell.html" xlink:title="&lt;TABLE&gt;" target="_parent">
<polygon fill="none" stroke="black" points="301.18,-222 221.18,-222 221.18,-148 301.18,-148 301.18,-222"/>
<polygon fill="#dddddd" stroke="transparent" points="222.18,-149 222.18,-221 300.18,-221 300.18,-149 222.18,-149"/>
<polygon fill="none" stroke="black" points="222.18,-149 222.18,-221 300.18,-221 300.18,-149 222.18,-149"/>
<text text-anchor="start" x="228.18" y="-203.8" font-family="Times,serif" font-size="14.00">mazeCell</text>
<text text-anchor="start" x="241.18" y="-188.8" font-family="Times,serif" font-size="14.00">(href)</text>
<text text-anchor="start" x="241.18" y="-173.8" font-family="Times,serif" font-size="14.00">(title)</text>
<text text-anchor="start" x="245.68" y="-158.8" font-family="Times,serif" font-size="14.00">(rel)</text>
</a>
</g>
</g>
<!-- mazeItem&#45;&gt;mazeCell -->
<g id="edge3" class="edge">
<title>mazeItem&#45;&gt;mazeCell</title>
<g id="a_edge3"><a xlink:href="docs/safe.goStart.html" xlink:title="goStart, start (safe)" target="_parent">
<path fill="none" stroke="black" d="M64.06,-295.8C63.6,-284.4 65.58,-272.56 73.18,-264 93.13,-241.53 180.61,-260.03 207.18,-246 215.02,-241.86 222.28,-236.11 228.78,-229.78"/>
<polygon fill="black" stroke="black" points="231.67,-231.82 236.03,-222.17 226.6,-226.99 231.67,-231.82"/>
</a>
</g>
<g id="a_edge3&#45;label"><a xlink:href="docs/safe.goStart.html" xlink:title="goStart, start (safe)" target="_parent">
<text text-anchor="middle" x="138.18" y="-267.6" font-family="Times,serif" font-size="13.00">goStart, start (safe)</text>
</a>
</g>
</g>
<!-- mazeCell&#45;&gt;mazeCollection -->
<g id="edge8" class="edge">
<title>mazeCell&#45;&gt;mazeCollection</title>
<g id="a_edge8"><a xlink:href="docs/safe.goCollection.html" xlink:title="goCollection, collection (safe)" target="_parent">
<path fill="none" stroke="black" d="M301.29,-199.91C329.75,-212.07 366,-232.75 384.18,-264 452.02,-380.58 398.3,-387.9 390.18,-402 384.62,-411.66 376.59,-419.76 367.55,-426.49"/>
<polygon fill="black" stroke="black" points="365.31,-423.78 359.01,-432.29 369.25,-429.57 365.31,-423.78"/>
</a>
</g>
<g id="a_edge8&#45;label"><a xlink:href="docs/safe.goCollection.html" xlink:title="goCollection, collection (safe)" target="_parent">
<text text-anchor="middle" x="516.18" y="-329.6" font-family="Times,serif" font-size="13.00">goCollection, collection (safe)</text>
</a>
</g>
</g>
<!-- mazeCell&#45;&gt;mazeItem -->
<g id="edge7" class="edge">
<title>mazeCell&#45;&gt;mazeItem</title>
<g id="a_edge7"><a xlink:href="docs/safe.goItem.html" xlink:title="goItem, item maze (safe)" target="_parent">
<path fill="none" stroke="black" d="M245.11,-222.13C235.26,-240.87 221.1,-262.92 203.18,-278 180.57,-297.03 150.33,-310.09 124.6,-318.6"/>
<polygon fill="black" stroke="black" points="123.46,-315.29 114.98,-321.64 125.57,-321.96 123.46,-315.29"/>
</a>
</g>
<g id="a_edge7&#45;label"><a xlink:href="docs/safe.goItem.html" xlink:title="goItem, item maze (safe)" target="_parent">
<text text-anchor="middle" x="298.18" y="-267.6" font-family="Times,serif" font-size="13.00">goItem, item maze (safe)</text>
</a>
</g>
</g>
<!-- mazeCell&#45;&gt;mazeCell -->
<g id="edge6" class="edge">
<title>mazeCell&#45;&gt;mazeCell</title>
<path fill="none" stroke="black" d="M301.3,-200.93C311.52,-199.88 319.18,-194.57 319.18,-185 319.18,-178.87 316.04,-174.48 311.09,-171.85"/>
<polygon fill="black" stroke="black" points="311.88,-168.43 301.3,-169.07 309.97,-175.17 311.88,-168.43"/>
<g id="a_edge6_0"><a xlink:href="docs/safe.goStart.html" xlink:title="&lt;TABLE&gt;">
<text text-anchor="start" x="323.68" y="-231.6" font-family="Times,serif" font-size="13.00">goStart (safe)</text>
</a>
</g>
<g id="a_edge6_1"><a xlink:href="docs/safe.goNorth.html" xlink:title="&lt;TABLE&gt;">
<text text-anchor="start" x="323.68" y="-211.6" font-family="Times,serif" font-size="13.00">goNorth (safe)</text>
</a>
</g>
<g id="a_edge6_2"><a xlink:href="docs/safe.goSouth.html" xlink:title="&lt;TABLE&gt;">
<text text-anchor="start" x="323.68" y="-191.6" font-family="Times,serif" font-size="13.00">goSouth (safe)</text>
</a>
</g>
<g id="a_edge6_3"><a xlink:href="docs/safe.goEast.html" xlink:title="&lt;TABLE&gt;">
<text text-anchor="start" x="323.68" y="-171.6" font-family="Times,serif" font-size="13.00">goEast (safe)</text>
</a>
</g>
<g id="a_edge6_4"><a xlink:href="docs/safe.goWest.html" xlink:title="&lt;TABLE&gt;">
<text text-anchor="start" x="323.68" y="-151.6" font-family="Times,serif" font-size="13.00">goWest (safe)</text>
</a>
</g>
<g id="a_edge6_5"><a xlink:href="docs/safe.goCurrent.html" xlink:title="&lt;TABLE&gt;">
<text text-anchor="start" x="323.68" y="-131.6" font-family="Times,serif" font-size="13.00">goCurrent (safe)</text>
</a>
</g>
</g>
<!-- mazeExit -->
<g id="node4" class="node">
<title>mazeExit</title>
<g id="a_node4"><a xlink:href="docs/semantic.mazeExit.html" xlink:title="&lt;TABLE&gt;" target="_parent">
<polygon fill="none" stroke="black" points="300.68,-74 219.68,-74 219.68,0 300.68,0 300.68,-74"/>
<polygon fill="#dddddd" stroke="transparent" points="221.18,-1 221.18,-73 300.18,-73 300.18,-1 221.18,-1"/>
<polygon fill="none" stroke="black" points="221.18,-1 221.18,-73 300.18,-73 300.18,-1 221.18,-1"/>
<text text-anchor="start" x="227.18" y="-55.8" font-family="Times,serif" font-size="14.00">mazeExit</text>
<text text-anchor="start" x="240.68" y="-40.8" font-family="Times,serif" font-size="14.00">(href)</text>
<text text-anchor="start" x="240.68" y="-25.8" font-family="Times,serif" font-size="14.00">(title)</text>
<text text-anchor="start" x="245.18" y="-10.8" font-family="Times,serif" font-size="14.00">(rel)</text>
</a>
</g>
</g>
<!-- mazeCell&#45;&gt;mazeExit -->
<g id="edge5" class="edge">
<title>mazeCell&#45;&gt;mazeExit</title>
<g id="a_edge5"><a xlink:href="docs/safe.goExit.html" xlink:title="goExit, exit (safe)" target="_parent">
<path fill="none" stroke="black" d="M228.74,-147.98C210.49,-127.71 191.32,-106.36 191.18,-106 184.74,-89.17 195.78,-74.51 210.8,-63.16"/>
<polygon fill="black" stroke="black" points="213.21,-65.75 219.46,-57.2 209.24,-59.99 213.21,-65.75"/>
</a>
</g>
<g id="a_edge5&#45;label"><a xlink:href="docs/safe.goExit.html" xlink:title="goExit, exit (safe)" target="_parent">
<text text-anchor="middle" x="250.18" y="-95.6" font-family="Times,serif" font-size="13.00">goExit, exit (safe)</text>
</a>
</g>
</g>
<!-- mazeExit&#45;&gt;mazeCollection -->
<g id="edge11" class="edge">
<title>mazeExit&#45;&gt;mazeCollection</title>
<g id="a_edge11"><a xlink:href="docs/safe.goCollection.html" xlink:title="goCollection, collection (safe)" target="_parent">
<path fill="none" stroke="black" d="M300.93,-42.91C340.45,-49.21 400.78,-63 445.18,-92 544.23,-156.69 575.75,-184.82 616.18,-296 627.43,-326.91 636.19,-343.89 616.18,-370 586.31,-409 453.6,-434.31 369.04,-446.79"/>
<polygon fill="black" stroke="black" points="368.38,-443.35 358.98,-448.25 369.38,-450.28 368.38,-443.35"/>
</a>
</g>
<g id="a_edge11&#45;label"><a xlink:href="docs/safe.goCollection.html" xlink:title="goCollection, collection (safe)" target="_parent">
<text text-anchor="middle" x="707.18" y="-267.6" font-family="Times,serif" font-size="13.00">goCollection, collection (safe)</text>
</a>
</g>
</g>
<!-- mazeExit&#45;&gt;mazeItem -->
<g id="edge10" class="edge">
<title>mazeExit&#45;&gt;mazeItem</title>
<g id="a_edge10"><a xlink:href="docs/safe.goItem.html" xlink:title="goItem, item maze (safe)" target="_parent">
<path fill="none" stroke="black" d="M219.45,-41.34C169.41,-47.88 86.46,-67.17 48.18,-124 15.74,-172.17 33.14,-241.24 50.81,-286.35"/>
<polygon fill="black" stroke="black" points="47.67,-287.93 54.68,-295.88 54.16,-285.29 47.67,-287.93"/>
</a>
</g>
<g id="a_edge10&#45;label"><a xlink:href="docs/safe.goItem.html" xlink:title="goItem, item maze (safe)" target="_parent">
<text text-anchor="middle" x="130.18" y="-181.6" font-family="Times,serif" font-size="13.00">goItem, item maze (safe)</text>
</a>
</g>
</g>
<!-- mazeExit&#45;&gt;mazeCell -->
<g id="edge9" class="edge">
<title>mazeExit&#45;&gt;mazeCell</title>
<g id="a_edge9"><a xlink:href="docs/safe.goStart.html" xlink:title="goStart, start (safe)" target="_parent">
<path fill="none" stroke="black" d="M299.19,-74.21C303.25,-79.76 306.77,-85.74 309.18,-92 315.31,-107.88 310.38,-124.56 301.72,-139.3"/>
<polygon fill="black" stroke="black" points="298.76,-137.44 296.25,-147.73 304.63,-141.25 298.76,-137.44"/>
</a>
</g>
<g id="a_edge9&#45;label"><a xlink:href="docs/safe.goStart.html" xlink:title="goStart, start (safe)" target="_parent">
<text text-anchor="middle" x="376.18" y="-95.6" font-family="Times,serif" font-size="13.00">goStart, start (safe)</text>
</a>
</g>
</g>
</g>
</svg>
